{
    "asset" : {
        "generator" : "Khronos glTF Blender I/O v1.5.17",
        "version" : "2.0"
    },
    "scene" : 0,
    "scenes" : [
        {
            "name" : "Scene",
            "nodes" : [
                6,
                7,
                8
            ]
        }
    ],
    "nodes" : [
        {
            "mesh" : 0,
            "name" : "Mesh_0"
        },
        {
            "mesh" : 1,
            "name" : "Mesh_1"
        },
        {
            "mesh" : 2,
            "name" : "Mesh_2"
        },
        {
            "children" : [
                0,
                1,
                2
            ],
            "name" : "RootNode"
        },
        {
            "children" : [
                3
            ],
            "name" : "f34a705e34c342099d68d8294cf16086.fbx",
            "rotation" : [
                0.7071068286895752,
                0,
                0,
                0.7071068286895752
            ]
        },
        {
            "children" : [
                4
            ],
            "name" : "RootNode (model correction matrix)"
        },
        {
            "children" : [
                5
            ],
            "name" : "RootNode (gltf orientation matrix)",
            "rotation" : [
                0,
                0.7071068286895752,
                0.7071067094802856,
                -3.090862321641907e-08
            ]
        },
        {
            "name" : "Light",
            "rotation" : [
                0.16907575726509094,
                0.7558803558349609,
                -0.27217137813568115,
                0.570947527885437
            ],
            "translation" : [
                4.076245307922363,
                5.903861999511719,
                -1.0054539442062378
            ]
        },
        {
            "name" : "Camera",
            "rotation" : [
                0.483536034822464,
                0.33687159419059753,
                -0.20870360732078552,
                0.7804827094078064
            ],
            "translation" : [
                7.358891487121582,
                4.958309173583984,
                6.925790786743164
            ]
        }
    ],
    "materials" : [
        {
            "alphaMode" : "BLEND",
            "doubleSided" : true,
            "name" : "blinn1",
            "pbrMetallicRoughness" : {
                "baseColorFactor" : [
                    0.01730274222791195,
                    0.028100602328777313,
                    0.03421842306852341,
                    0.5199999809265137
                ],
                "roughnessFactor" : 0
            }
        },
        {
            "doubleSided" : true,
            "emissiveFactor" : [
                1,
                1,
                1
            ],
            "emissiveTexture" : {
                "index" : 0
            },
            "name" : "lambert11",
            "normalTexture" : {
                "index" : 1
            },
            "occlusionTexture" : {
                "index" : 2
            },
            "pbrMetallicRoughness" : {
                "baseColorTexture" : {
                    "index" : 3
                },
                "metallicFactor" : 0.6399999856948853,
                "metallicRoughnessTexture" : {
                    "index" : 2
                }
            }
        },
        {
            "doubleSided" : true,
            "emissiveFactor" : [
                1,
                1,
                1
            ],
            "emissiveTexture" : {
                "index" : 4
            },
            "name" : "lambert3",
            "normalTexture" : {
                "index" : 5
            },
            "occlusionTexture" : {
                "index" : 6
            },
            "pbrMetallicRoughness" : {
                "baseColorTexture" : {
                    "index" : 7
                },
                "metallicFactor" : 0.8600000143051147,
                "metallicRoughnessTexture" : {
                    "index" : 6
                }
            }
        }
    ],
    "meshes" : [
        {
            "name" : "Mesh_0",
            "primitives" : [
                {
                    "attributes" : {
                        "POSITION" : 0,
                        "NORMAL" : 1,
                        "TEXCOORD_0" : 2
                    },
                    "indices" : 3,
                    "material" : 0
                }
            ]
        },
        {
            "name" : "Mesh_1",
            "primitives" : [
                {
                    "attributes" : {
                        "POSITION" : 4,
                        "NORMAL" : 5,
                        "TEXCOORD_0" : 6,
                        "TEXCOORD_1" : 7,
                        "TEXCOORD_2" : 8
                    },
                    "indices" : 9,
                    "material" : 1
                }
            ]
        },
        {
            "name" : "Mesh_2",
            "primitives" : [
                {
                    "attributes" : {
                        "POSITION" : 10,
                        "NORMAL" : 11,
                        "TEXCOORD_0" : 12
                    },
                    "indices" : 13,
                    "material" : 2
                }
            ]
        }
    ],
    "textures" : [
        {
            "sampler" : 0,
            "source" : 0
        },
        {
            "sampler" : 0,
            "source" : 1
        },
        {
            "sampler" : 0,
            "source" : 2
        },
        {
            "sampler" : 0,
            "source" : 3
        },
        {
            "sampler" : 0,
            "source" : 4
        },
        {
            "sampler" : 0,
            "source" : 5
        },
        {
            "sampler" : 0,
            "source" : 6
        },
        {
            "sampler" : 0,
            "source" : 7
        }
    ],
    "images" : [
        {
            "mimeType" : "image/png",
            "name" : "lambert11_emissive",
            "uri" : "textures/lambert11_emissive.png"
        },
        {
            "mimeType" : "image/png",
            "name" : "lambert11_normal",
            "uri" : "textures/lambert11_normal.png"
        },
        {
            "mimeType" : "image/png",
            "name" : "lambert11_metallicRoughness",
            "uri" : "textures/lambert11_metallicRoughness.png"
        },
        {
            "mimeType" : "image/png",
            "name" : "lambert11_baseColor",
            "uri" : "textures/lambert11_baseColor.png"
        },
        {
            "mimeType" : "image/png",
            "name" : "lambert3_emissive",
            "uri" : "textures/lambert3_emissive.png"
        },
        {
            "mimeType" : "image/png",
            "name" : "lambert3_normal",
            "uri" : "textures/lambert3_normal.png"
        },
        {
            "mimeType" : "image/png",
            "name" : "lambert3_metallicRoughness",
            "uri" : "textures/lambert3_metallicRoughness.png"
        },
        {
            "mimeType" : "image/png",
            "name" : "lambert3_baseColor",
            "uri" : "textures/lambert3_baseColor.png"
        }
    ],
    "accessors" : [
        {
            "bufferView" : 0,
            "componentType" : 5126,
            "count" : 101,
            "max" : [
                0.08105900138616562,
                0.2902370095252991,
                0.01697400026023388
            ],
            "min" : [
                -0.08105900138616562,
                0.18988299369812012,
                -0.43356001377105713
            ],
            "type" : "VEC3"
        },
        {
            "bufferView" : 1,
            "componentType" : 5126,
            "count" : 101,
            "type" : "VEC3"
        },
        {
            "bufferView" : 2,
            "componentType" : 5126,
            "count" : 101,
            "type" : "VEC2"
        },
        {
            "bufferView" : 3,
            "componentType" : 5123,
            "count" : 486,
            "type" : "SCALAR"
        },
        {
            "bufferView" : 4,
            "componentType" : 5126,
            "count" : 24718,
            "max" : [
                0.9411622285842896,
                0.36224907636642456,
                0.9438276886940002
            ],
            "min" : [
                -0.9411622285842896,
                -0.18505501747131348,
                -1.0582160949707031
            ],
            "type" : "VEC3"
        },
        {
            "bufferView" : 5,
            "componentType" : 5126,
            "count" : 24718,
            "type" : "VEC3"
        },
        {
            "bufferView" : 6,
            "componentType" : 5126,
            "count" : 24718,
            "type" : "VEC2"
        },
        {
            "bufferView" : 7,
            "componentType" : 5126,
            "count" : 24718,
            "type" : "VEC2"
        },
        {
            "bufferView" : 8,
            "componentType" : 5126,
            "count" : 24718,
            "type" : "VEC2"
        },
        {
            "bufferView" : 9,
            "componentType" : 5123,
            "count" : 44214,
            "type" : "SCALAR"
        },
        {
            "bufferView" : 10,
            "componentType" : 5126,
            "count" : 6965,
            "max" : [
                0.8613824844360352,
                0.006058976054191589,
                0.07124996185302734
            ],
            "min" : [
                -0.860048770904541,
                -0.110334113240242,
                -0.38548362255096436
            ],
            "type" : "VEC3"
        },
        {
            "bufferView" : 11,
            "componentType" : 5126,
            "count" : 6965,
            "type" : "VEC3"
        },
        {
            "bufferView" : 12,
            "componentType" : 5126,
            "count" : 6965,
            "type" : "VEC2"
        },
        {
            "bufferView" : 13,
            "componentType" : 5123,
            "count" : 13272,
            "type" : "SCALAR"
        }
    ],
    "bufferViews" : [
        {
            "buffer" : 0,
            "byteLength" : 1212,
            "byteOffset" : 0
        },
        {
            "buffer" : 0,
            "byteLength" : 1212,
            "byteOffset" : 1212
        },
        {
            "buffer" : 0,
            "byteLength" : 808,
            "byteOffset" : 2424
        },
        {
            "buffer" : 0,
            "byteLength" : 972,
            "byteOffset" : 3232
        },
        {
            "buffer" : 0,
            "byteLength" : 296616,
            "byteOffset" : 4204
        },
        {
            "buffer" : 0,
            "byteLength" : 296616,
            "byteOffset" : 300820
        },
        {
            "buffer" : 0,
            "byteLength" : 197744,
            "byteOffset" : 597436
        },
        {
            "buffer" : 0,
            "byteLength" : 197744,
            "byteOffset" : 795180
        },
        {
            "buffer" : 0,
            "byteLength" : 197744,
            "byteOffset" : 992924
        },
        {
            "buffer" : 0,
            "byteLength" : 88428,
            "byteOffset" : 1190668
        },
        {
            "buffer" : 0,
            "byteLength" : 83580,
            "byteOffset" : 1279096
        },
        {
            "buffer" : 0,
            "byteLength" : 83580,
            "byteOffset" : 1362676
        },
        {
            "buffer" : 0,
            "byteLength" : 55720,
            "byteOffset" : 1446256
        },
        {
            "buffer" : 0,
            "byteLength" : 26544,
            "byteOffset" : 1501976
        }
    ],
    "samplers" : [
        {
            "magFilter" : 9729,
            "minFilter" : 9987
        }
    ],
    "buffers" : [
        {
            "byteLength" : 1528520,
            "uri" : "scene.bin"
        }
    ]
}
